<?xml version="1.0" standalone="no"?>
<svg xmlns:xlink="http://www.w3.org/1999/xlink" id="wave" style="transform:rotate(180deg); transition: 0.3s" viewBox="0 0 1440 110" version="1.1" xmlns="http://www.w3.org/2000/svg"><defs><linearGradient id="sw-gradient-0" x1="0" x2="0" y1="1" y2="0"><stop stop-color="rgba(255, 249, 234, 1)" offset="0%"/><stop stop-color="rgba(255, 249, 234, 1)" offset="100%"/></linearGradient></defs><path style="transform:translate(0, 0px); opacity:1" fill="url(#sw-gradient-0)" d="M0,0L60,14.7C120,29,240,59,360,62.3C480,66,600,44,720,34.8C840,26,960,29,1080,34.8C1200,40,1320,48,1440,42.2C1560,37,1680,18,1800,22C1920,26,2040,51,2160,53.2C2280,55,2400,33,2520,34.8C2640,37,2760,62,2880,62.3C3000,62,3120,37,3240,27.5C3360,18,3480,26,3600,36.7C3720,48,3840,62,3960,64.2C4080,66,4200,55,4320,44C4440,33,4560,22,4680,18.3C4800,15,4920,18,5040,23.8C5160,29,5280,37,5400,47.7C5520,59,5640,73,5760,67.8C5880,62,6000,37,6120,22C6240,7,6360,4,6480,16.5C6600,29,6720,59,6840,71.5C6960,84,7080,81,7200,75.2C7320,70,7440,62,7560,49.5C7680,37,7800,18,7920,14.7C8040,11,8160,22,8280,23.8C8400,26,8520,18,8580,14.7L8640,11L8640,110L8580,110C8520,110,8400,110,8280,110C8160,110,8040,110,7920,110C7800,110,7680,110,7560,110C7440,110,7320,110,7200,110C7080,110,6960,110,6840,110C6720,110,6600,110,6480,110C6360,110,6240,110,6120,110C6000,110,5880,110,5760,110C5640,110,5520,110,5400,110C5280,110,5160,110,5040,110C4920,110,4800,110,4680,110C4560,110,4440,110,4320,110C4200,110,4080,110,3960,110C3840,110,3720,110,3600,110C3480,110,3360,110,3240,110C3120,110,3000,110,2880,110C2760,110,2640,110,2520,110C2400,110,2280,110,2160,110C2040,110,1920,110,1800,110C1680,110,1560,110,1440,110C1320,110,1200,110,1080,110C960,110,840,110,720,110C600,110,480,110,360,110C240,110,120,110,60,110L0,110Z"/></svg>